<svg width="302" height="348" xmlns="http://www.w3.org/2000/svg">
    <defs><linearGradient x1="0%" y1="0%" y2="88.353%" id="a">
        <stop stop-color="#FFF" offset="0%"/><stop stop-color="#FFF" stop-opacity="0" offset="100%"/>
    </linearGradient></defs><g fill="none" fill-rule="evenodd">
    <g fill="#FFF">
    </g><path d="M216.17 38.887c-4.67-3.148-10.015-4.876-15.422-5.49-2.707-.347-5.454-.286-8.183-.023l-2.043.265-1.968.381c-.66.113-1.297.302-1.945.452-.648.154-1.292.32-1.922.516-10.215 2.978-18.986 8.4-27.77 12.792-17.4 8.892-37.08 13.095-56.65 12.621-19.566-.575-39.019-5.98-55.849-16.115l-1.59-.925-1.546-.997-3.089-1.999-2.996-2.137-1.497-1.07-1.449-1.134-2.893-2.277-2.788-2.402c-1.894-1.565-3.6-3.333-5.402-5-3.427-3.508-6.794-7.096-9.772-10.999-1.57-1.888-2.928-3.935-4.38-5.912-.7-1.007-1.343-2.052-2.017-3.076-.667-1.03-1.35-2.049-1.944-3.122-2.802-4.824-4.37-4.045-1.619.944.58 1.107 1.251 2.16 1.906 3.224.663 1.058 1.294 2.14 1.984 3.18 1.43 2.05 2.77 4.168 4.322 6.132 2.945 4.052 6.287 7.798 9.703 11.47 1.794 1.75 3.5 3.6 5.395 5.251l2.792 2.532 2.901 2.408 1.456 1.2 1.506 1.136 3.017 2.271 3.117 2.135 1.562 1.064 1.608.995c17.017 10.866 37.046 17.04 57.376 18.105 20.32.982 41.065-2.995 59.48-12.082 9.134-4.445 17.706-9.543 26.837-12.118 4.586-1.322 9.074-1.888 13.622-1.34 4.514.507 8.94 1.981 12.568 4.418 3.477 2.383 5.472 4.705 6.934 6.354.776.81 1.31 1.493 1.847 1.917.532.426 1.01.612 1.394.513.384-.099.674-.486.83-1.206.15-.718.223-1.795-.142-3.123a21.669 21.669 0 0 0-.28-1.072c-.11-.378-.298-.737-.47-1.135a36.352 36.352 0 0 0-.596-1.232c-.215-.432-.52-.819-.808-1.254-1.136-1.76-2.906-3.459-5.128-5.036" transform="translate(78 282)" fill="url(#a)"/>
</g></svg>